<svg width="40" height="50" viewBox="0 0 40 50" xmlns="http://www.w3.org/2000/svg">
  <!-- Marker shape -->
  <path d="M20 2C11.16 2 4 9.16 4 18c0 5.25 2.5 9.92 6.38 12.87L20 48l9.62-17.13C33.5 27.92 36 23.25 36 18c0-8.84-7.16-16-16-16z" fill="#6B6B6B" stroke="#4A4A4A" stroke-width="2"/>
  
  <!-- Question mark icon -->
  <g transform="translate(20, 18)">
    <!-- Question mark -->
    <path d="M-3 -6c0-2 1.5-3.5 4-3.5s4 1.5 4 3.5c0 1.5-1 2.5-2 3l-1 1v1m0 2h0" fill="none" stroke="#FFF" stroke-width="2" stroke-linecap="round" stroke-linejoin="round"/>
    <!-- Dot -->
    <circle cx="0" cy="6" r="1.5" fill="#FFF"/>
  </g>
</svg>